<svg width="24" height="24" viewBox="0 0 24 24" fill="none" xmlns="http://www.w3.org/2000/svg">
<g clip-path="url(#clip0_445_26097)">
<path d="M17.7593 8.4171H12.9046V13.7325L15.3859 11.2544C15.4692 11.1708 15.5682 11.1045 15.6772 11.0593C15.7863 11.0141 15.9031 10.9908 16.0212 10.9908C16.1393 10.9908 16.2561 11.0141 16.3652 11.0593C16.4742 11.1045 16.5732 11.1708 16.6565 11.2544C16.8237 11.4233 16.9175 11.6513 16.9175 11.8889C16.9175 12.1264 16.8237 12.3544 16.6565 12.5234L12.6409 16.5339C12.4718 16.7008 12.2435 16.7945 12.0056 16.7945C11.7678 16.7945 11.5395 16.7008 11.3703 16.5339L7.35478 12.5234C7.19598 12.3532 7.10953 12.128 7.11364 11.8954C7.11775 11.6628 7.2121 11.4409 7.37681 11.2764C7.54152 11.1119 7.76374 11.0176 7.99664 11.0135C8.22955 11.0094 8.45495 11.0958 8.62537 11.2544L11.1066 13.7325V8.4171H6.252C5.41656 8.35072 4.57665 8.4662 3.79025 8.75557C3.00385 9.04495 2.28969 9.50132 1.69708 10.0932C1.10447 10.685 0.647522 11.3983 0.357785 12.1837C0.0680466 12.9691 -0.04758 13.808 0.018887 14.6423V17.743C-0.0487901 18.5782 0.0659034 19.4181 0.355042 20.2047C0.644181 20.9913 1.10087 21.7058 1.69356 22.2989C2.28624 22.892 3.00079 23.3495 3.78782 23.6398C4.57486 23.93 5.41561 24.0462 6.252 23.9802H17.7473C18.5827 24.0466 19.4226 23.9311 20.209 23.6417C20.9954 23.3524 21.7096 22.896 22.3022 22.3041C22.8948 21.7123 23.3518 20.999 23.6415 20.2136C23.9312 19.4282 24.0469 18.5894 23.9804 17.755V14.6423C24.0494 13.8084 23.9359 12.9695 23.6478 12.1838C23.3597 11.3981 22.9039 10.6843 22.3121 10.0921C21.7202 9.49986 21.0065 9.04329 20.2203 8.75406C19.4341 8.46482 18.5944 8.34985 17.7593 8.4171Z" fill="#03597B"/>
<path d="M13.1998 0.9C13.1977 0.661791 13.0706 0.433785 12.846 0.265341C12.6214 0.0968984 12.3174 0.00157239 11.9998 0C11.6822 0.00157239 11.3782 0.0968984 11.1536 0.265341C10.929 0.433785 10.8019 0.661791 10.7998 0.9V8.4H13.1998V0.9Z" fill="#03597B"/>
</g>
<defs>
<clipPath id="clip0_445_26097">
<rect width="24" height="24" fill="white"/>
</clipPath>
</defs>
</svg>
