<svg width="363" height="216" viewBox="0 0 363 216" fill="none" xmlns="http://www.w3.org/2000/svg">
<g clip-path="url(#clip0_1830_21852)">
<rect width="363" height="216" fill="#F8F8F8"/>
<mask id="mask0_1830_21852" style="mask-type:alpha" maskUnits="userSpaceOnUse" x="0" y="1" width="81" height="215">
<rect x="81" y="216" width="81" height="215" transform="rotate(-180 81 216)" fill="#D9D9D9"/>
</mask>
<g mask="url(#mask0_1830_21852)">
<g clip-path="url(#clip1_1830_21852)">
<path d="M38.5051 26.5762C31.2545 26.5762 25.3425 32.4875 25.3425 39.7372C32.5931 39.7372 38.5051 33.9374 38.5051 26.5762Z" fill="#F3F3F3"/>
<path d="M1.91733 104.986C11.9566 104.986 20.0996 96.8437 20.0996 86.8057C10.0603 86.8057 1.91733 94.9476 1.91733 104.986Z" fill="white" fill-opacity="0.9"/>
<path d="M42.9641 106.882C42.9641 117.812 51.8879 126.735 62.8196 126.735C62.8196 115.805 53.8958 106.882 42.9641 106.882Z" fill="#E6E6E8" fill-opacity="0.3"/>
<path d="M22.4412 44.6406C22.4412 55.1248 30.9188 63.713 41.5159 63.713C41.4043 53.1172 32.9267 44.6406 22.4412 44.6406Z" fill="#E6E6E8" fill-opacity="0.3"/>
<path d="M4.25739 68.1748C4.25739 75.6476 10.3925 81.782 17.8662 81.782C17.8662 74.3092 11.7311 68.1748 4.25739 68.1748Z" fill="#D9D9D9" fill-opacity="0.2"/>
<path d="M22.4412 2.81738C22.4412 13.3016 30.9188 21.8897 41.5159 21.8897C41.4043 11.294 32.9267 2.81738 22.4412 2.81738Z" fill="#F3F3F3"/>
<path d="M22.7763 86.6895C22.7763 96.8391 31.0308 105.093 41.1816 105.093C41.1816 94.943 32.9271 86.6895 22.7763 86.6895Z" fill="#D9D9D9" fill-opacity="0.2"/>
<path d="M44.7518 62.1547C53.6756 62.1547 60.8147 54.9049 60.8147 46.0938C52.0024 46.0937 44.7518 53.2319 44.7518 62.1547Z" fill="white" fill-opacity="0.9"/>
<path d="M66.9481 47.3213C66.9481 54.7941 73.0832 60.9285 80.5569 60.9285C80.5569 53.4557 74.4218 47.3213 66.9481 47.3213Z" fill="#E6E6E8" fill-opacity="0.3"/>
<path d="M43.4124 65.6103C43.4124 75.983 51.89 84.4596 62.2639 84.4596C62.2639 74.0869 53.7863 65.6104 43.4124 65.6103Z" fill="white" fill-opacity="0.9"/>
</g>
<path d="M1.91748 109.003C11.9567 109.003 20.0996 117.145 20.0996 127.183C10.0604 127.183 1.91748 119.041 1.91748 109.003Z" fill="white" fill-opacity="0.9"/>
<path d="M4.2575 145.813C4.2575 138.341 10.3926 132.206 17.8662 132.206C17.8662 139.679 11.7311 145.813 4.2575 145.813Z" fill="#D9D9D9" fill-opacity="0.2"/>
<path d="M22.7767 127.292C22.7767 117.142 31.0311 108.889 41.1819 108.889C41.1819 119.038 32.9274 127.292 22.7767 127.292Z" fill="#D9D9D9" fill-opacity="0.2"/>
<path d="M43.4125 148.378C43.4125 138.005 51.8901 129.529 62.2639 129.529C62.2639 139.901 53.7864 148.378 43.4125 148.378Z" fill="white" fill-opacity="0.9"/>
</g>
<path d="M300 210C312.641 210 323 199.641 323 187C310.359 187 300 197.359 300 210Z" fill="white" fill-opacity="0.9"/>
<path d="M300 151C305.496 151 310 146.046 310 140C304.504 140 300 144.954 300 151Z" fill="white" fill-opacity="0.9"/>
<path d="M269 210C275.046 210 280 205.496 280 200C273.954 200 269 204.504 269 210Z" fill="white" fill-opacity="0.9"/>
<path d="M324 177C324 163.686 313.314 153 300 153C300 166.314 310.861 177 324 177Z" fill="#E6E6E8" fill-opacity="0.3"/>
<path d="M310 136C310 129.898 305.547 125 300 125C300 131.102 304.526 136 310 136Z" fill="#E6E6E8" fill-opacity="0.3"/>
<path d="M347 141C355.794 141 363 133.794 363 125C354.206 125 347 132.206 347 141Z" fill="white" fill-opacity="0.9"/>
<path d="M363 164C363 154.569 355.876 147 347 147C347 156.431 354.241 164 363 164Z" fill="#E6E6E8" fill-opacity="0.3"/>
<path d="M280 196C280 189.343 275.102 184 269 184C269 190.657 273.978 196 280 196Z" fill="#E6E6E8" fill-opacity="0.3"/>
<path d="M333 187C333 200.314 343.686 211 357 211C357 197.686 346.314 187 333 187Z" fill="#D9D9D9" fill-opacity="0.3"/>
<path d="M314 140C314 146.102 319.343 151 326 151C326 144.898 320.657 140 314 140Z" fill="#D9D9D9" fill-opacity="0.3"/>
<path d="M284 200C284 205.547 289.343 210 296 210C296 204.453 290.657 200 284 200Z" fill="#D9D9D9" fill-opacity="0.3"/>
<path d="M358 153C343.556 153 332 164.285 332 178C346.264 178 358 166.715 358 153Z" fill="white" fill-opacity="0.9"/>
<path d="M326 125C319.333 125 314 129.965 314 136C320.583 136 326 131.035 326 125Z" fill="white" fill-opacity="0.9"/>
<path d="M296 184C289.333 184 284 189.417 284 196C290.583 196 296 190.583 296 184Z" fill="white" fill-opacity="0.9"/>
<path d="M326.36 13.3893C326.497 13.5267 326.718 13.5267 326.856 13.3893L329.646 10.5995C329.711 10.5339 329.748 10.4437 329.748 10.3515C329.748 10.0399 329.371 9.88204 329.15 10.1034L326.856 12.3972C326.718 12.5345 326.497 12.5345 326.36 12.3972L324.066 10.1034C323.845 9.88204 323.467 10.0399 323.467 10.3515C323.467 10.4437 323.504 10.5339 323.57 10.5995L326.36 13.3893Z" fill="#03597B" fill-opacity="0.2"/>
<path d="M326.856 19.7319C326.718 19.5946 326.497 19.5946 326.36 19.7319L323.57 22.5217C323.504 22.5873 323.467 22.6775 323.467 22.7698C323.467 23.0813 323.845 23.2392 324.066 23.0178L326.36 20.724C326.497 20.5867 326.718 20.5867 326.856 20.724L329.15 23.0178C329.371 23.2392 329.748 23.0813 329.748 22.7698C329.748 22.6775 329.711 22.5873 329.646 22.5217L326.856 19.7319Z" fill="#03597B" fill-opacity="0.2"/>
<path d="M304.577 33.9727C304.464 33.862 304.27 33.862 304.159 33.9727L303.095 35.0365C303.04 35.0919 303.009 35.1677 303.009 35.2456C303.009 35.3666 303.081 35.4731 303.191 35.5182C303.228 35.5346 303.267 35.5408 303.304 35.5408C303.382 35.5408 303.456 35.51 303.513 35.4547L304.368 34.5999L305.223 35.4547C305.307 35.5408 305.434 35.5654 305.545 35.5182C305.655 35.4731 305.727 35.3645 305.727 35.2436C305.727 35.1636 305.696 35.0898 305.641 35.0345L304.577 33.9706V33.9727Z" fill="#3BBEEF" fill-opacity="0.2"/>
<path d="M352.749 33.9074C352.638 33.8623 352.511 33.8869 352.427 33.9709L351.572 34.8257L350.718 33.9709C350.632 33.8849 350.507 33.8603 350.396 33.9074C350.285 33.9525 350.213 34.0611 350.213 34.18C350.213 34.2579 350.244 34.3338 350.299 34.3891L351.363 35.453C351.419 35.5083 351.495 35.5391 351.572 35.5391C351.65 35.5391 351.726 35.5083 351.782 35.453L352.845 34.3871C352.901 34.3317 352.931 34.2559 352.931 34.178C352.931 34.057 352.86 33.9504 352.749 33.9054V33.9074Z" fill="#3BBEEF" fill-opacity="0.2"/>
<path d="M307.18 29.6252C306.873 29.6252 306.625 29.8732 306.625 30.1807V31.5746C306.625 31.7222 306.596 31.837 306.538 31.9128C306.479 31.9907 306.383 32.0522 306.251 32.0932C306.098 32.1424 305.897 32.1752 305.655 32.1875C305.403 32.2018 305.11 32.208 304.757 32.208C304.362 32.208 304.021 32.2039 303.738 32.1977C303.46 32.1916 303.222 32.1772 303.033 32.1588C302.851 32.1403 302.701 32.1137 302.588 32.0809C302.486 32.0501 302.404 32.0133 302.347 31.9702C302.252 31.9026 302.193 31.8247 302.166 31.7324C302.131 31.6176 302.115 31.4885 302.115 31.3471C302.115 31.2138 302.125 31.0806 302.146 30.9555C302.168 30.8223 302.191 30.6973 302.215 30.5845C302.228 30.5251 302.213 30.4615 302.174 30.4144C302.135 30.3672 302.078 30.3385 302.017 30.3385H301.822C301.471 30.3385 301.166 30.5907 301.11 30.9371C301.11 30.9391 301.11 30.9412 301.11 30.9432C301.084 31.1052 301.072 31.2753 301.072 31.4495C301.072 31.7078 301.108 31.9518 301.178 32.1772C301.254 32.4191 301.393 32.6282 301.592 32.8024C301.742 32.9295 301.922 33.03 302.129 33.0976C302.324 33.1632 302.552 33.2104 302.808 33.2411C303.056 33.2698 303.337 33.2862 303.642 33.2903C303.943 33.2944 304.275 33.2965 304.64 33.2965C304.894 33.2965 305.14 33.2924 305.378 33.2862C305.622 33.2801 305.854 33.2596 306.069 33.2288C306.29 33.1981 306.495 33.1489 306.682 33.0833C306.881 33.0136 307.055 32.9131 307.201 32.786C307.35 32.6549 307.465 32.4888 307.547 32.292C307.625 32.1014 307.666 31.8677 307.666 31.5971V30.1049C307.666 29.8384 307.449 29.6211 307.182 29.6211L307.18 29.6252Z" fill="#03597B" fill-opacity="0.2"/>
<path d="M349.915 26.587C349.85 26.5521 349.77 26.5542 349.708 26.5952L346.431 28.7188C346.283 28.8151 346.193 28.9791 346.193 29.1554V29.2641C346.193 29.4608 346.303 29.6412 346.48 29.7294C346.795 29.8872 347.087 30.0409 347.349 30.1926C347.65 30.3648 347.911 30.5411 348.124 30.7153C348.327 30.8814 348.484 31.0536 348.593 31.2217C348.692 31.3795 348.741 31.5373 348.741 31.7075C348.741 31.7874 348.726 31.8571 348.7 31.9145C348.677 31.9596 348.634 32.0026 348.571 32.0375C348.487 32.0826 348.37 32.1195 348.22 32.1461C348.06 32.1728 347.851 32.1871 347.601 32.1871H346.4H343.624H340.847H338.071C337.897 32.1871 337.801 32.1625 337.752 32.14C337.692 32.1154 337.649 32.0785 337.618 32.0272C337.581 31.9637 337.555 31.8797 337.542 31.7772C337.528 31.6521 337.52 31.5025 337.52 31.3303V30.1496C337.52 29.8626 337.288 29.631 337.001 29.631C336.714 29.631 336.483 29.8626 336.483 30.1496V31.6357C336.483 31.7669 336.47 31.8714 336.444 31.9473C336.421 32.0129 336.39 32.0621 336.356 32.0949C336.319 32.1277 336.276 32.1502 336.222 32.1625C336.151 32.1789 336.071 32.1871 335.985 32.1871C335.81 32.1871 335.714 32.1625 335.665 32.142C335.605 32.1174 335.564 32.0826 335.534 32.0334C335.497 31.976 335.474 31.896 335.462 31.7977C335.448 31.6767 335.441 31.5271 335.441 31.3528V30.865C335.441 30.578 335.21 30.3464 334.923 30.3464C334.636 30.3464 334.404 30.578 334.404 30.865V31.6316C334.404 31.7546 334.388 31.853 334.357 31.9247C334.328 31.9924 334.291 32.0436 334.248 32.0805C334.203 32.1174 334.152 32.142 334.091 32.1584C334.015 32.1769 333.937 32.1851 333.855 32.1851C333.699 32.1851 333.613 32.1605 333.568 32.142C333.515 32.1195 333.478 32.0867 333.451 32.0395C333.416 31.9801 333.394 31.9001 333.381 31.7997C333.367 31.6808 333.361 31.5353 333.361 31.3672V30.867C333.361 30.5801 333.129 30.3484 332.842 30.3484C332.555 30.3484 332.324 30.5801 332.324 30.867V31.6337C332.324 31.7444 332.305 31.8325 332.272 31.9001C332.235 31.9719 332.19 32.0272 332.137 32.0682C332.084 32.1113 332.024 32.14 331.961 32.1584C331.887 32.1789 331.819 32.1871 331.76 32.1871H329.751H310.298C310.116 32.1871 310.015 32.1625 309.964 32.142C309.905 32.1174 309.864 32.0846 309.835 32.0375C309.8 31.978 309.775 31.8981 309.765 31.7977C309.753 31.6767 309.747 31.5271 309.747 31.3569V27.1753C309.747 26.8883 309.515 26.6567 309.228 26.6567C308.941 26.6567 308.709 26.8883 308.709 27.1753V31.5968C308.709 31.7956 308.728 31.9903 308.761 32.1769C308.798 32.3798 308.871 32.5643 308.98 32.7242C309.093 32.8923 309.253 33.0255 309.458 33.1259C309.656 33.2223 309.913 33.2715 310.218 33.2715H329.737H331.705C331.805 33.2715 331.91 33.2633 332.016 33.2448C332.127 33.2264 332.237 33.1936 332.346 33.1485C332.455 33.1034 332.559 33.044 332.662 32.9702C332.699 32.9435 332.734 32.9148 332.766 32.8861C332.848 32.9804 332.949 33.0583 333.066 33.1198C333.258 33.2223 333.5 33.2715 333.808 33.2715C333.908 33.2715 334.013 33.2633 334.121 33.2448C334.232 33.2264 334.345 33.1936 334.455 33.1505C334.564 33.1055 334.673 33.046 334.775 32.9743C334.812 32.9476 334.849 32.9189 334.884 32.8861C334.906 32.9128 334.931 32.9374 334.956 32.9599C335.044 33.0378 335.142 33.1014 335.253 33.1485C335.355 33.1915 335.47 33.2243 335.593 33.2448C335.81 33.2797 336.052 33.2838 336.284 33.251C336.395 33.2346 336.503 33.2079 336.608 33.1669C336.712 33.126 336.813 33.0706 336.905 33.005C336.936 32.9825 336.966 32.9579 336.995 32.9312C337.077 33.0194 337.176 33.0911 337.286 33.1464C337.467 33.2325 337.694 33.2756 337.979 33.2756H338.069H340.845H343.622H346.398H347.587C347.9 33.2756 348.175 33.251 348.405 33.2018C348.638 33.1526 348.839 33.085 349.003 32.9989C349.171 32.9107 349.309 32.8082 349.415 32.6914C349.518 32.5786 349.6 32.4577 349.655 32.3347C349.71 32.2138 349.747 32.0928 349.764 31.9739C349.78 31.8653 349.788 31.7628 349.788 31.6726C349.788 31.3897 349.723 31.1171 349.591 30.865C349.464 30.621 349.284 30.3874 349.056 30.168C348.833 29.9549 348.56 29.7478 348.245 29.5551C348.169 29.508 348.089 29.4608 348.009 29.4157C347.8 29.2969 347.792 28.9996 347.995 28.8705L349.93 27.659C349.989 27.6221 350.024 27.5565 350.024 27.4869V26.7715C350.024 26.6977 349.983 26.628 349.917 26.5931L349.915 26.587Z" fill="url(#paint0_linear_1830_21852)" fill-opacity="0.2"/>
<path d="M351.574 26.6494H351.572C351.285 26.6494 351.053 26.8816 351.053 27.168V32.6903C351.053 32.9767 351.285 33.2089 351.572 33.2089H351.574C351.86 33.2089 352.092 32.9767 352.092 32.6903V27.168C352.092 26.8816 351.86 26.6494 351.574 26.6494Z" fill="#03597B" fill-opacity="0.2"/>
<path d="M302.664 23.1244H318.022C318.426 23.1244 318.756 22.7964 318.756 22.3926C318.756 21.9888 318.426 21.6587 318.022 21.6587H302.882C302.652 21.6587 302.466 21.4722 302.466 21.2426V17.7128C302.466 17.4832 302.652 17.2967 302.882 17.2967H318.02C318.424 17.2967 318.754 16.9687 318.754 16.5649C318.754 16.1611 318.424 15.8311 318.02 15.8311H302.664C301.748 15.8311 301 16.5792 301 17.4955V21.462C301 22.3782 301.748 23.1264 302.664 23.1264V23.1244Z" fill="#03597B" fill-opacity="0.2"/>
<path d="M301.732 11.4677H318.02C318.424 11.4677 318.754 11.1397 318.754 10.7338C318.754 10.328 318.426 10 318.022 10H301.732C301.328 10 301 10.328 301 10.7318C301 11.1356 301.328 11.4656 301.732 11.4656V11.4677Z" fill="#03597B" fill-opacity="0.2"/>
<path d="M320.216 21.9239C319.929 22.2109 319.929 22.6742 320.216 22.9612C320.501 23.2461 320.966 23.2461 321.253 22.9612L326.617 17.5967L331.976 22.955L331.98 22.9612C332.263 23.2502 332.73 23.2461 333.017 22.9612C333.302 22.6742 333.302 22.2109 333.017 21.9239L327.653 16.5616L332.937 11.2771C333.2 10.9881 333.195 10.5474 332.913 10.2645C332.63 9.9816 332.162 9.9775 331.875 10.2645L326.615 15.5223L321.366 10.2727C321.366 10.2727 320.821 9.77867 320.329 10.2727C320.081 10.5207 320.023 10.9389 320.283 11.2648L325.58 16.5616L320.23 21.9116L320.216 21.926V21.9239Z" fill="url(#paint1_linear_1830_21852)" fill-opacity="0.2"/>
<path d="M336.558 23.1231H349.001C351.016 23.1231 352.647 21.4893 352.647 19.4743C352.647 18.2834 352.076 17.2277 351.194 16.5615C352.076 15.8953 352.647 14.8376 352.647 13.6467C352.647 11.6337 351.016 10 349.001 10H335.626C335.222 10 334.894 10.328 334.894 10.7318C334.894 11.1356 335.222 11.4656 335.626 11.4656H349.001C350.206 11.4656 351.182 12.4414 351.182 13.6446C351.182 14.8479 350.204 15.8256 349.001 15.8256H336.558C335.64 15.8256 334.894 16.5738 334.894 17.4901V21.4565C334.894 22.3728 335.64 23.121 336.558 23.121V23.1231ZM336.359 17.7115C336.359 17.4819 336.548 17.2954 336.776 17.2954H349.001C350.206 17.2954 351.182 18.2731 351.182 19.4764C351.182 20.6796 350.204 21.6554 349.001 21.6554H336.776C336.546 21.6554 336.359 21.4688 336.359 21.2393V17.7094V17.7115Z" fill="#03597B" fill-opacity="0.2"/>
</g>
<defs>
<linearGradient id="paint0_linear_1830_21852" x1="348.638" y1="29.9159" x2="309.732" y2="29.9159" gradientUnits="userSpaceOnUse">
<stop stop-color="#03597B"/>
<stop offset="1" stop-color="#35BDEF"/>
</linearGradient>
<linearGradient id="paint1_linear_1830_21852" x1="320.001" y1="16.6149" x2="333.232" y2="16.6149" gradientUnits="userSpaceOnUse">
<stop stop-color="#03597B"/>
<stop offset="1" stop-color="#35BDEF"/>
</linearGradient>
<clipPath id="clip0_1830_21852">
<rect width="363" height="216" fill="white"/>
</clipPath>
<clipPath id="clip1_1830_21852">
<rect width="501.346" height="498.057" fill="white" transform="translate(80.5569 -374.615) rotate(90)"/>
</clipPath>
</defs>
</svg>
